<svg width="30.000000" height="30.000000" viewBox="0 0 30 30" fill="none" xmlns="http://www.w3.org/2000/svg" xmlns:xlink="http://www.w3.org/1999/xlink">
	<desc>
			Created with Pixso.
	</desc>
	<defs/>
	<path id="Vector" d="M3.75 9.77C3.75 6.79 6.16 4.37 9.15 4.37C9.62 4.37 10.09 4.43 10.53 4.55C11.52 3.3 13.05 2.5 14.77 2.5C16.54 2.5 18.11 3.35 19.09 4.66C19.64 4.47 20.23 4.37 20.85 4.37C23.83 4.37 26.25 6.79 26.25 9.77C26.25 12.4 24.36 14.59 21.87 15.07L21.87 25C21.87 25.69 21.31 26.25 20.62 26.25L9.37 26.25C8.68 26.25 8.12 25.69 8.12 25L8.12 15.07C5.63 14.59 3.75 12.4 3.75 9.77Z" stroke="#EB5160" stroke-opacity="1.000000" stroke-width="2.500000" stroke-linejoin="round"/>
	<path id="Vector" d="M8.12 19.37L21.87 19.37" stroke="#EB5160" stroke-opacity="1.000000" stroke-width="2.500000" stroke-linejoin="round" stroke-linecap="round"/>
	<path id="Vector" d="M12.5 15.62L12.5 19.37" stroke="#EB5160" stroke-opacity="1.000000" stroke-width="2.500000" stroke-linejoin="round" stroke-linecap="round"/>
	<path id="Vector" d="M21.87 17.5L21.87 21.25" stroke="#EB5160" stroke-opacity="1.000000" stroke-width="2.500000" stroke-linejoin="round" stroke-linecap="round"/>
	<path id="Vector" d="M8.12 17.5L8.12 21.25" stroke="#EB5160" stroke-opacity="1.000000" stroke-width="2.500000" stroke-linejoin="round" stroke-linecap="round"/>
</svg>
