<svg width="30" height="30" viewBox="0 0 30 30" fill="none" xmlns="http://www.w3.org/2000/svg">
<rect width="30" height="30" fill="white"/>
<path d="M22.4447 4.03506L25.8007 15.9101C26.0261 16.7078 25.4267 17.5 24.5977 17.5H17.4217C16.9821 17.5 16.6569 17.9089 16.7557 18.3372L17.0679 19.6899C17.3542 20.9308 17.4462 22.2086 17.3404 23.4776L17.2829 24.1671C17.2213 24.9067 16.8996 25.6004 16.3748 26.1252C15.8947 26.6053 15.2436 26.875 14.5647 26.875H14.4152C14.0046 26.875 13.6263 26.6524 13.4269 26.2935L11.7656 23.3032C11.0206 21.962 9.90994 20.86 8.56306 20.1253L4.40144 17.8553C3.99986 17.6363 3.75 17.2154 3.75 16.7579V4.375C3.75 3.68464 4.30964 3.125 5 3.125H21.2418C21.8013 3.125 22.2926 3.49671 22.4447 4.03506Z" stroke="black" stroke-width="2.5" stroke-linecap="round" stroke-linejoin="round"/>
</svg>
